<?xml version="1.0" encoding="UTF-8" standalone="no" ?>
<!DOCTYPE svg PUBLIC "-//W3C//DTD SVG 1.1//EN" "http://www.w3.org/Graphics/SVG/1.1/DTD/svg11.dtd">
<svg xmlns="http://www.w3.org/2000/svg" xmlns:xlink="http://www.w3.org/1999/xlink" version="1.1" width="388" height="138" viewBox="0 0 388 138" xml:space="preserve">
<desc>Created with Fabric.js 3.6.3</desc>
<defs>
</defs>
<g transform="matrix(1 0 0 1 184 115.5)"  >
<g style=""   >
		<g transform="matrix(2.14 0 0 2.14 -99.91 -46.43)"  >
<path style="stroke: none; stroke-width: 1; stroke-dasharray: none; stroke-linecap: butt; stroke-dashoffset: 0; stroke-linejoin: miter; stroke-miterlimit: 4; fill: rgb(97,31,105); fill-rule: nonzero; opacity: 1;"  transform=" translate(-50.1, -50)" d="M 88.844 52.861 c -0.732 -14.075 -12.447 -25.1 -26.572 -25.1 c -1.202 0 -2.44 0.088 -3.627 0.249 c -4.852 -6.231 -12.437 -10.25 -20.927 -10.25 c -14.125 0 -25.772 11.025 -26.504 25.1 l -0.008 29.38 l 8.617 -8.434 c 4.861 4.438 11.267 6.949 17.876 6.949 c 1.213 0 2.405 -0.089 3.575 -0.248 c 5.008 6.437 12.732 10.249 20.921 10.249 c 6.609 0 13.171 -2.511 18.031 -6.949 L 89 82.24 V 52.965 L 88.844 52.861 z M 21.286 59.635 l -1.498 -1.491 L 15 62.729 V 43.017 C 16 31.093 25.62 21.76 37.598 21.76 c 12.405 0 22.547 10.092 22.547 22.498 c 0 12.405 -10.067 22.497 -22.471 22.497 C 31.393 66.754 25.589 64.226 21.286 59.635 z M 61.583 56 h 12.895 c -0.742 6 -5.968 10.736 -12.282 10.736 c -2.619 0 -5.101 -0.747 -7.184 -2.241 C 57.746 62.13 59.997 59 61.583 56 z M 85 72.73 l -4.84 -4.585 l -1.474 1.49 c -4.304 4.592 -10.171 7.12 -16.452 7.12 c -6.303 0 -12.302 -2.662 -16.534 -7.232 c 2.465 -0.78 4.766 -1.911 6.862 -3.335 c 2.723 2.206 6.295 3.411 9.854 3.411 C 70.893 69.599 78 62.703 78 54.227 V 53 H 62.8 c 0.444 -1 0.789 -2.809 1.024 -4.206 c 0.701 1.069 1.906 1.709 3.28 1.709 c 2.167 0 3.924 -1.791 3.924 -3.958 s -1.757 -3.941 -3.924 -3.941 c -1.164 0 -2.198 0.508 -2.916 1.312 c -0.057 -4.375 -1.176 -8.502 -3.116 -12.124 c 0.374 -0.018 0.903 -0.03 1.278 -0.03 C 74.327 31.763 84 41.094 85 53.018 V 72.73 z" stroke-linecap="round" />
</g>
		<g transform="matrix(2.14 0 0 2.14 -126.48 -46.32)"  >
<path style="stroke: none; stroke-width: 1; stroke-dasharray: none; stroke-linecap: butt; stroke-dashoffset: 0; stroke-linejoin: miter; stroke-miterlimit: 4; fill: rgb(97,31,105); fill-rule: nonzero; opacity: 1;"  transform=" translate(-37.7, -50.08)" d="M 51.572 41.641 c -0.829 0 -1.5 0.671 -1.5 1.5 c 0 6.823 -5.55 12.373 -12.373 12.373 c -6.823 0 -12.373 -5.55 -12.373 -12.373 c 0 -0.829 -0.671 -1.5 -1.5 -1.5 s -1.5 0.671 -1.5 1.5 c 0 8.477 6.896 15.373 15.373 15.373 s 15.373 -6.896 15.373 -15.373 C 53.072 42.312 52.4 41.641 51.572 41.641 z" stroke-linecap="round" />
</g>
		<g transform="matrix(2.14 0 0 2.14 -139.96 -77.64)"  >
<circle style="stroke: none; stroke-width: 1; stroke-dasharray: none; stroke-linecap: butt; stroke-dashoffset: 0; stroke-linejoin: miter; stroke-miterlimit: 4; fill: rgb(97,31,105); fill-rule: nonzero; opacity: 1;"  cx="0" cy="0" r="3.924" />
</g>
		<g transform="matrix(2.14 0 0 2.14 -115.7 -76.84)"  >
<path style="stroke: none; stroke-width: 1; stroke-dasharray: none; stroke-linecap: butt; stroke-dashoffset: 0; stroke-linejoin: miter; stroke-miterlimit: 4; fill: rgb(97,31,105); fill-rule: nonzero; opacity: 1;"  transform=" translate(-42.76, -35.79)" d="M 38.772 39 h 7.971 c 0.829 0 1.5 -0.671 1.5 -1.5 s -0.671 -1.5 -1.5 -1.5 h -2.504 l 0.851 -0.573 c 0.712 -0.423 0.947 -1.377 0.524 -2.09 c -0.423 -0.712 -1.343 -0.965 -2.056 -0.541 l -5.553 3.286 c -0.581 0.345 -0.86 1.099 -0.681 1.751 C 37.504 38.485 38.096 39 38.772 39 z" stroke-linecap="round" />
</g>
		<g transform="matrix(1.11 0 0 1.11 100 -29.5)"  >
<path style="stroke: none; stroke-width: 1; stroke-dasharray: none; stroke-linecap: butt; stroke-dashoffset: 0; stroke-linejoin: miter; stroke-miterlimit: 4; fill: rgb(97,31,105); fill-rule: nonzero; opacity: 1;"  transform=" translate(-96.1, 29.48)" d="M 1.8 -29.6 L 1.8 -29.6 L 1.8 -29.6 Q 1.8 -34.93 3.81 -40.1 L 3.81 -40.1 L 3.81 -40.1 Q 5.82 -45.26 9.68 -49.36 L 9.68 -49.36 L 9.68 -49.36 Q 13.53 -53.46 19.02 -56.01 L 19.02 -56.01 L 19.02 -56.01 Q 24.52 -58.55 31.57 -58.55 L 31.57 -58.55 L 31.57 -58.55 Q 40.02 -58.55 46.21 -55.06 L 46.21 -55.06 L 46.21 -55.06 Q 52.4 -51.58 55.43 -45.84 L 55.43 -45.84 L 43.21 -37.15 L 43.21 -37.15 Q 42.39 -39.28 41.04 -40.67 L 41.04 -40.67 L 41.04 -40.67 Q 39.69 -42.07 38.05 -42.89 L 38.05 -42.89 L 38.05 -42.89 Q 36.41 -43.71 34.65 -44.03 L 34.65 -44.03 L 34.65 -44.03 Q 32.88 -44.36 31.24 -44.36 L 31.24 -44.36 L 31.24 -44.36 Q 27.8 -44.36 25.3 -43.01 L 25.3 -43.01 L 25.3 -43.01 Q 22.8 -41.66 21.2 -39.48 L 21.2 -39.48 L 21.2 -39.48 Q 19.6 -37.31 18.82 -34.56 L 18.82 -34.56 L 18.82 -34.56 Q 18.04 -31.82 18.04 -29.11 L 18.04 -29.11 L 18.04 -29.11 Q 18.04 -26.08 18.94 -23.29 L 18.94 -23.29 L 18.94 -23.29 Q 19.84 -20.5 21.57 -18.37 L 21.57 -18.37 L 21.57 -18.37 Q 23.29 -16.24 25.79 -14.96 L 25.79 -14.96 L 25.79 -14.96 Q 28.29 -13.69 31.41 -13.69 L 31.41 -13.69 L 31.41 -13.69 Q 33.05 -13.69 34.77 -14.06 L 34.77 -14.06 L 34.77 -14.06 Q 36.49 -14.43 38.09 -15.29 L 38.09 -15.29 L 38.09 -15.29 Q 39.69 -16.15 40.96 -17.51 L 40.96 -17.51 L 40.96 -17.51 Q 42.23 -18.86 42.97 -20.83 L 42.97 -20.83 L 56.01 -13.04 L 56.01 -13.04 Q 54.69 -9.84 52.03 -7.3 L 52.03 -7.3 L 52.03 -7.3 Q 49.36 -4.76 45.96 -3.03 L 45.96 -3.03 L 45.96 -3.03 Q 42.56 -1.31 38.66 -0.41 L 38.66 -0.41 L 38.66 -0.41 Q 34.77 0.49 31.08 0.49 L 31.08 0.49 L 31.08 0.49 Q 24.6 0.49 19.23 -2.09 L 19.23 -2.09 L 19.23 -2.09 Q 13.86 -4.67 9.96 -8.94 L 9.96 -8.94 L 9.96 -8.94 Q 6.07 -13.2 3.94 -18.61 L 3.94 -18.61 L 3.94 -18.61 Q 1.8 -24.03 1.8 -29.6 Z M 103.98 -28.37 L 103.98 0 L 88.4 0 L 88.4 -24.27 L 88.4 -24.27 Q 88.4 -27.47 86.96 -28.91 L 86.96 -28.91 L 86.96 -28.91 Q 85.53 -30.34 83.39 -30.34 L 83.39 -30.34 L 83.39 -30.34 Q 82.66 -30.34 81.63 -29.89 L 81.63 -29.89 L 81.63 -29.89 Q 80.61 -29.44 79.58 -28.66 L 79.58 -28.66 L 79.58 -28.66 Q 78.56 -27.88 77.65 -26.73 L 77.65 -26.73 L 77.65 -26.73 Q 76.75 -25.58 76.18 -24.19 L 76.18 -24.19 L 76.18 0 L 60.6 0 L 60.6 -59.86 L 76.18 -59.86 L 76.18 -36.74 L 76.18 -36.74 Q 78.47 -40.26 82.16 -42.11 L 82.16 -42.11 L 82.16 -42.11 Q 85.85 -43.95 90.45 -43.95 L 90.45 -43.95 L 90.45 -43.95 Q 94.96 -43.95 97.66 -42.39 L 97.66 -42.39 L 97.66 -42.39 Q 100.37 -40.84 101.76 -38.5 L 101.76 -38.5 L 101.76 -38.5 Q 103.16 -36.16 103.57 -33.46 L 103.57 -33.46 L 103.57 -33.46 Q 103.98 -30.75 103.98 -28.37 L 103.98 -28.37 Z M 124.23 0.82 L 124.23 0.82 L 124.23 0.82 Q 121.03 0.82 118.24 -0.25 L 118.24 -0.25 L 118.24 -0.25 Q 115.46 -1.31 113.45 -3.16 L 113.45 -3.16 L 113.45 -3.16 Q 111.44 -5 110.29 -7.54 L 110.29 -7.54 L 110.29 -7.54 Q 109.14 -10.09 109.14 -13.04 L 109.14 -13.04 L 109.14 -13.04 Q 109.14 -16.32 110.54 -19.02 L 110.54 -19.02 L 110.54 -19.02 Q 111.93 -21.73 114.39 -23.7 L 114.39 -23.7 L 114.39 -23.7 Q 116.85 -25.67 120.25 -26.73 L 120.25 -26.73 L 120.25 -26.73 Q 123.66 -27.8 127.76 -27.8 L 127.76 -27.8 L 127.76 -27.8 Q 133 -27.8 136.45 -26.16 L 136.45 -26.16 L 136.45 -27.47 L 136.45 -27.47 Q 136.45 -30.5 134.69 -31.98 L 134.69 -31.98 L 134.69 -31.98 Q 132.92 -33.46 128.99 -33.46 L 128.99 -33.46 L 128.99 -33.46 Q 125.3 -33.46 122.18 -32.27 L 122.18 -32.27 L 122.18 -32.27 Q 119.06 -31.08 115.62 -28.78 L 115.62 -28.78 L 111.11 -38.46 L 111.11 -38.46 Q 119.64 -43.95 130.54 -43.95 L 130.54 -43.95 L 130.54 -43.95 Q 140.88 -43.95 146.45 -39.36 L 146.45 -39.36 L 146.45 -39.36 Q 152.03 -34.77 152.03 -25.58 L 152.03 -25.58 L 152.03 -17.22 L 152.03 -17.22 Q 152.03 -15.01 152.68 -14.15 L 152.68 -14.15 L 152.68 -14.15 Q 153.34 -13.28 154.98 -13.12 L 154.98 -13.12 L 154.98 0 L 154.98 0 Q 153.09 0.41 151.41 0.61 L 151.41 0.61 L 151.41 0.61 Q 149.73 0.82 148.42 0.82 L 148.42 0.82 L 148.42 0.82 Q 144.24 0.82 142.06 -0.7 L 142.06 -0.7 L 142.06 -0.7 Q 139.89 -2.21 139.24 -5.17 L 139.24 -5.17 L 138.91 -6.72 L 138.91 -6.72 Q 136.04 -3.03 132.27 -1.11 L 132.27 -1.11 L 132.27 -1.11 Q 128.49 0.82 124.23 0.82 Z M 128.9 -10.33 L 128.9 -10.33 L 128.9 -10.33 Q 130.3 -10.33 131.77 -10.78 L 131.77 -10.78 L 131.77 -10.78 Q 133.25 -11.23 134.4 -11.97 L 134.4 -11.97 L 134.4 -11.97 Q 135.3 -12.63 135.87 -13.41 L 135.87 -13.41 L 135.87 -13.41 Q 136.45 -14.19 136.45 -15.01 L 136.45 -15.01 L 136.45 -18.2 L 136.45 -18.2 Q 135.05 -18.7 133.41 -19.02 L 133.41 -19.02 L 133.41 -19.02 Q 131.77 -19.35 130.46 -19.35 L 130.46 -19.35 L 130.46 -19.35 Q 127.59 -19.35 125.71 -17.96 L 125.71 -17.96 L 125.71 -17.96 Q 123.82 -16.56 123.82 -14.43 L 123.82 -14.43 L 123.82 -14.43 Q 123.82 -12.63 125.25 -11.48 L 125.25 -11.48 L 125.25 -11.48 Q 126.69 -10.33 128.9 -10.33 Z M 187.62 -14.68 L 190.4 -2.38 L 190.4 -2.38 Q 187.12 -0.98 183.39 -0.04 L 183.39 -0.04 L 183.39 -0.04 Q 179.66 0.9 176.05 0.9 L 176.05 0.9 L 176.05 0.9 Q 173.43 0.9 171.05 0.25 L 171.05 0.25 L 171.05 0.25 Q 168.67 -0.41 166.91 -1.89 L 166.91 -1.89 L 166.91 -1.89 Q 165.15 -3.36 164.12 -5.74 L 164.12 -5.74 L 164.12 -5.74 Q 163.1 -8.12 163.1 -11.64 L 163.1 -11.64 L 163.1 -31.41 L 157.77 -31.41 L 157.77 -43.13 L 163.1 -43.13 L 163.1 -56.66 L 178.68 -56.66 L 178.68 -43.13 L 187.12 -43.13 L 187.12 -31.41 L 178.68 -31.41 L 178.68 -17.14 L 178.68 -17.14 Q 178.68 -15.01 179.58 -14.15 L 179.58 -14.15 L 179.58 -14.15 Q 180.48 -13.28 182.04 -13.28 L 182.04 -13.28 L 182.04 -13.28 Q 183.19 -13.28 184.66 -13.65 L 184.66 -13.65 L 184.66 -13.65 Q 186.14 -14.02 187.62 -14.68 L 187.62 -14.68 Z" stroke-linecap="round" />
</g>
</g>
</g>
</svg>